<svg viewBox="0 0 640 640" fill="#4a4a4a" xmlns="http://www.w3.org/2000/svg"><path d="M256 398h-.02c0-16.18 1.34-8.73-85.05-181.51-17.65-35.29-68.19-35.36-85.87 0C-2.06 390.75.02 382.33.02 398H0c0 44.18 57.31 80 128 80s128-35.82 128-80zM128 238l72 144H56zm511.98 160c0-16.18 1.34-8.73-85.05-181.51-17.65-35.29-68.19-35.36-85.87 0-87.12 174.26-85.04 165.84-85.04 181.51H384c0 44.18 57.31 80 128 80s128-35.82 128-80zM440 382l72-144 72 144zm88 128H352V215.25c23.51-10.29 41.16-31.48 46.39-57.25H528c8.84 0 16-7.16 16-16v-32c0-8.84-7.16-16-16-16H383.64c-14.6-19.32-37.55-32-63.64-32-26.09 0-49.04 12.68-63.64 32H112c-8.84 0-16 7.16-16 16v32c0 8.84 7.16 16 16 16h129.61c5.23 25.76 22.87 46.96 46.39 57.25V510H112c-8.84 0-16 7.16-16 16v32c0 8.84 7.16 16 16 16h416c8.84 0 16-7.16 16-16v-32c0-8.84-7.16-16-16-16z"/></svg>