<svg viewBox="0 0 512 512" fill="#4A4A4A" xmlns="http://www.w3.org/2000/svg"><path d="M171.804 412.386c0 2.117-2.37 3.811-5.36 3.811-3.4.318-5.771-1.376-5.771-3.81 0-2.118 2.37-3.812 5.36-3.812 3.09-.318 5.77 1.376 5.77 3.811zm-32.053-4.764c-.721 2.118 1.34 4.552 4.432 5.188 2.68 1.058 5.771 0 6.39-2.118.618-2.117-1.34-4.552-4.432-5.505-2.68-.74-5.668.318-6.39 2.435zm45.554-1.8c-2.99.742-5.05 2.753-4.741 5.188.309 2.117 2.989 3.493 6.08 2.752 2.99-.74 5.05-2.752 4.741-4.87-.309-2.01-3.092-3.387-6.08-3.07zM253.119.149C110.173.148.824 111.624.824 258.458c0 117.405 71.937 217.87 174.69 253.23 13.192 2.434 17.83-5.929 17.83-12.81 0-6.564-.31-42.77-.31-65.001 0 0-72.143 15.88-87.293-31.548 0 0-11.75-30.807-28.651-38.747 0 0-23.601-16.62 1.649-16.303 0 0 25.662 2.118 39.782 27.313 22.57 40.864 60.394 29.113 75.132 22.126 2.37-16.938 9.07-28.69 16.49-35.676-57.612-6.564-115.739-15.139-115.739-116.98 0-29.114 7.833-43.723 24.323-62.355-2.68-6.882-11.44-35.253 2.68-71.883 21.54-6.88 71.112 28.584 71.112 28.584 20.612-5.928 42.77-8.999 64.723-8.999 21.952 0 44.11 3.07 64.723 8.999 0 0 49.572-35.57 71.112-28.584 14.12 36.736 5.36 65.001 2.68 71.883 16.49 18.738 26.59 33.347 26.59 62.354 0 102.16-60.704 110.311-118.315 116.98 9.481 8.364 17.52 24.244 17.52 49.122 0 35.676-.309 79.822-.309 88.503 0 6.881 4.74 15.245 17.83 12.81C442.135 476.329 512.01 375.863 512.01 258.459 512.01 111.624 396.066.149 253.12.149zM101 365.276c-1.34 1.059-1.03 3.494.722 5.505 1.649 1.694 4.019 2.435 5.359 1.059 1.34-1.059 1.03-3.494-.722-5.505-1.649-1.694-4.02-2.435-5.359-1.059zm-11.13-8.575c-.722 1.377.309 3.07 2.37 4.129 1.649 1.059 3.71.741 4.431-.741.722-1.376-.309-3.07-2.37-4.129-2.061-.635-3.71-.317-4.432.741zm33.391 37.688c-1.649 1.376-1.03 4.552 1.34 6.564 2.37 2.435 5.36 2.752 6.7 1.058 1.339-1.376.72-4.552-1.34-6.563-2.268-2.435-5.36-2.753-6.7-1.059zm-11.749-15.562c-1.649 1.059-1.649 3.811 0 6.246 1.65 2.435 4.432 3.494 5.772 2.435 1.649-1.376 1.649-4.129 0-6.564-1.443-2.435-4.123-3.493-5.772-2.117z"/></svg>