<svg viewBox="0 0 576 576" fill="#4A4A4A" xmlns="http://www.w3.org/2000/svg"><path d="M280.37 173.852L96 335.966v174.969a16 17.082 0 0016 17.082l112.06-.31a16 17.082 0 0015.92-17.082v-102.18a16 17.082 0 0116-17.08h64a16 17.082 0 0116 17.08v102.106a16 17.082 0 0016 17.135l112.02.33a16 17.082 0 0016-17.081V335.849L295.67 173.852a12.19 13.014 0 00-15.3 0zM571.6 284.039L488 210.47V62.598a12 12.811 0 00-12-12.812h-56a12 12.811 0 00-12 12.812v77.518l-89.53-78.64a48 51.245 0 00-61 0L4.34 284.04a12 12.811 0 00-1.6 18.042l25.5 33.095a12 12.811 0 0016.91 1.74L280.37 130.08a12.19 13.014 0 0115.3 0L530.9 336.917a12 12.811 0 0016.9-1.709l25.5-33.095a12 12.811 0 00-1.7-18.074z"/></svg>