<svg xmlns="http://www.w3.org/2000/svg" fill="#4a4a4a" viewBox="0 0 512 512"><path d="M168.217 402.39c0 32.37-26.24 58.61-58.609 58.61S51 434.76 51 402.39c0-32.369 26.24-58.608 58.609-58.608s58.608 26.24 58.608 58.608zm160.76 43.242c-7.645-141.486-120.973-254.956-262.61-262.61C58.007 182.572 51 189.289 51 197.66v43.992c0 7.7 5.94 14.16 13.624 14.659 102.346 6.666 184.384 88.5 191.064 191.063.5 7.685 6.959 13.624 14.66 13.624h43.99c8.374.001 15.091-7.005 14.639-15.366zm132.013.264C453.308 231.91 281.135 58.729 66.103 51.01 57.84 50.713 51 57.39 51 65.658v43.99c0 7.894 6.255 14.318 14.142 14.642 174.963 7.174 315.395 147.633 322.568 322.568.323 7.887 6.748 14.142 14.642 14.142h43.991c8.268 0 14.944-6.84 14.647-15.104z"/></svg>